<svg width="76" height="76" viewBox="0 0 76 76" fill="none" xmlns="http://www.w3.org/2000/svg">
<path d="M38 0L45.8681 8.63585L57 5.09103L59.496 16.504L70.909 19L67.3642 30.1319L76 38L67.3642 45.8681L70.909 57L59.496 59.496L57 70.909L45.8681 67.3642L38 76L30.1319 67.3642L19 70.909L16.504 59.496L5.09103 57L8.63585 45.8681L0 38L8.63585 30.1319L5.09103 19L16.504 16.504L19 5.09103L30.1319 8.63585L38 0Z" fill="#464672"/>
<path d="M37.62 7.6L43.8358 14.4223L52.63 11.6219L54.6019 20.6381L63.6181 22.61L60.8177 31.4042L67.64 37.62L60.8177 43.8358L63.6181 52.63L54.6019 54.6019L52.63 63.6181L43.8358 60.8177L37.62 67.64L31.4042 60.8177L22.61 63.6181L20.6381 54.6019L11.6219 52.63L14.4223 43.8358L7.6 37.62L14.4223 31.4042L11.6219 22.61L20.6381 20.6381L22.61 11.6219L31.4042 14.4223L37.62 7.6Z" fill="#9A9CBC"/>
<path d="M37.3139 14.407L42.2142 19.7855L49.1474 17.5778L50.702 24.6859L57.8101 26.2405L55.6024 33.1736L60.9809 38.074L55.6024 42.9744L57.8101 49.9076L50.702 51.4622L49.1474 58.5703L42.2142 56.3625L37.3139 61.7411L32.4135 56.3625L25.4803 58.5703L23.9257 51.4622L16.8176 49.9076L19.0253 42.9744L13.6468 38.074L19.0253 33.1736L16.8176 26.2405L23.9257 24.6859L25.4803 17.5778L32.4135 19.7855L37.3139 14.407Z" fill="#E6EBE0"/>
</svg>
