<svg width="70" height="70" viewBox="0 0 70 70" fill="none" xmlns="http://www.w3.org/2000/svg">
<path d="M70 35C70 54.33 54.33 70 35 70C15.67 70 0 54.33 0 35C0 15.67 15.67 0 35 0C54.33 0 70 15.67 70 35Z" fill="#39393A"/>
<path d="M49.7026 20.1059C47.7775 18.1621 45.4845 16.6211 42.9575 15.5728C40.4305 14.5245 37.72 13.9899 34.9842 14.0001C23.5209 14.0001 14.1785 23.3399 14.168 34.8059C14.168 38.4783 15.1288 42.0509 16.9426 45.214L14 56.0001L25.0355 53.1074C28.087 54.7723 31.5081 55.6433 34.9842 55.6405H34.9948C46.4608 55.6405 55.8005 46.3008 55.811 34.8243C55.8133 32.0892 55.2746 29.3806 54.2258 26.8546C53.177 24.3286 51.6415 22.035 49.7026 20.1059ZM34.9842 52.1178C31.8846 52.1153 28.8423 51.2813 26.1748 49.7028L25.5448 49.3248L18.998 51.0415L20.7463 44.6549L20.3368 43.996C18.6037 41.2406 17.6872 38.0505 17.6934 34.7954C17.6934 25.2771 25.4555 17.5124 34.9948 17.5124C37.2673 17.5083 39.5182 17.9541 41.6177 18.8241C43.7171 19.6941 45.6236 20.971 47.2272 22.5813C48.8361 24.1855 50.1116 26.0923 50.9802 28.1918C51.8488 30.2912 52.2934 32.5418 52.2882 34.8138C52.2778 44.3661 44.5156 52.1178 34.9842 52.1178ZM44.4736 39.166C43.9565 38.9061 41.4024 37.6488 40.922 37.4703C40.4442 37.2996 40.0951 37.2104 39.7539 37.7301C39.4048 38.2473 38.4073 39.4259 38.108 39.7645C37.8088 40.1136 37.499 40.153 36.9792 39.8958C36.4621 39.6333 34.7847 39.0873 32.8003 37.3101C31.2515 35.932 30.2146 34.2258 29.9049 33.7086C29.6056 33.1889 29.876 32.9106 30.1359 32.6508C30.3643 32.4198 30.653 32.0418 30.9129 31.7425C31.1754 31.4433 31.262 31.2228 31.4326 30.8763C31.6032 30.5245 31.5219 30.2253 31.3932 29.9654C31.262 29.7055 30.2251 27.1409 29.7868 26.1066C29.3668 25.0855 28.9389 25.2273 28.6186 25.2141C28.3194 25.1958 27.9702 25.1958 27.6211 25.1958C27.3575 25.2025 27.0981 25.2635 26.8592 25.3751C26.6202 25.4867 26.4069 25.6463 26.2325 25.8441C25.7547 26.3639 24.4186 27.6213 24.4186 30.1859C24.4186 32.7505 26.2824 35.2154 26.5449 35.5645C26.8021 35.9136 30.2041 41.161 35.4252 43.4185C36.659 43.9566 37.6303 44.2743 38.3889 44.5158C39.6358 44.9148 40.7619 44.8544 41.6596 44.7258C42.6571 44.5735 44.7335 43.4658 45.1719 42.2504C45.6024 41.0324 45.6024 39.9929 45.4711 39.775C45.3425 39.5545 44.9934 39.4259 44.4736 39.166Z" fill="#E6EBE0"/>
</svg>
