<svg width="70" height="70" viewBox="0 0 70 70" fill="none" xmlns="http://www.w3.org/2000/svg">
<path d="M35 0L42.2469 7.95408L52.5 4.68911L54.799 15.201L65.3109 17.5L62.0459 27.7531L70 35L62.0459 42.2469L65.3109 52.5L54.799 54.799L52.5 65.3109L42.2469 62.0459L35 70L27.7531 62.0459L17.5 65.3109L15.201 54.799L4.68911 52.5L7.95408 42.2469L0 35L7.95408 27.7531L4.68911 17.5L15.201 15.201L17.5 4.68911L27.7531 7.95408L35 0Z" fill="#464672"/>
<path d="M34.65 7L40.3751 13.2837L48.475 10.7044L50.2912 19.0088L58.5956 20.825L56.0163 28.9249L62.3 34.65L56.0163 40.3751L58.5956 48.475L50.2912 50.2912L48.475 58.5956L40.3751 56.0163L34.65 62.3L28.9249 56.0163L20.825 58.5956L19.0088 50.2912L10.7044 48.475L13.2837 40.3751L7 34.65L13.2837 28.9249L10.7044 20.825L19.0088 19.0088L20.825 10.7044L28.9249 13.2837L34.65 7Z" fill="#9A9CBC"/>
<path d="M34.368 13.2696L38.8815 18.2235L45.2673 16.19L46.6992 22.737L53.2462 24.1689L51.2127 30.5547L56.1666 35.0682L51.2127 39.5817L53.2462 45.9675L46.6992 47.3994L45.2673 53.9463L38.8815 51.9129L34.368 56.8668L29.8545 51.9129L23.4687 53.9463L22.0369 47.3994L15.4899 45.9675L17.5233 39.5817L12.5694 35.0682L17.5233 30.5547L15.4899 24.1689L22.0369 22.737L23.4687 16.19L29.8545 18.2235L34.368 13.2696Z" fill="#E6EBE0"/>
</svg>
