<svg width="70" height="70" viewBox="0 0 70 70" fill="none" xmlns="http://www.w3.org/2000/svg">
<path d="M70 35C70 54.33 54.33 70 35 70C15.67 70 0 54.33 0 35C0 15.67 15.67 0 35 0C54.33 0 70 15.67 70 35Z" fill="#39393A"/>
<path d="M19.25 19C18.0606 18.9999 16.9064 19.4037 15.9764 20.1453C15.0465 20.8869 14.3959 21.9223 14.1313 23.0819L35 35.8367L55.8687 23.0819C55.6041 21.9223 54.9535 20.8869 54.0236 20.1453C53.0936 19.4037 51.9394 18.9999 50.75 19H19.25ZM14 44.725V26.0822L29.2329 35.3905L14 44.725ZM31.7476 36.9287L14.5014 47.497C14.9271 48.396 15.5995 49.1555 16.4402 49.6872C17.2809 50.2188 18.2553 50.5007 19.25 50.5H35.672C35.2261 49.2352 34.9989 47.9036 35 46.5625C34.9982 44.8381 35.3748 43.1344 36.1032 41.5714C36.8316 40.0084 37.8941 38.6243 39.2158 37.5168L38.2524 36.9261L35 38.9133L31.7476 36.9287ZM56 39.1364V26.0796L40.7671 35.3879L41.6544 35.9339C43.2621 35.1542 45.0257 34.7494 46.8125 34.75C50.5243 34.75 53.8344 36.4615 56 39.1364Z" fill="#E6EBE0"/>
<path d="M55.5642 45.8905C55.5642 48.9565 54.0496 51.2061 51.3984 51.2061C50.078 51.2061 48.7681 50.6076 48.4584 49.5051H48.3455C48.0357 50.5971 46.9201 51.193 45.6811 51.193C43.6599 51.193 42.3763 49.7702 42.3763 47.4287V46.0401C42.3763 43.8246 43.6389 42.3651 45.6838 42.3651C47.2194 42.3651 47.9675 43.2393 48.1854 44.0189H48.2641V42.5279H50.6398V48.2766C50.6398 48.9906 51.1123 49.3791 51.7186 49.3791C52.5455 49.3791 53.396 48.2897 53.396 45.7304V45.4206C53.396 42.0685 50.9022 39.3149 46.8755 39.3149H46.7705C42.6178 39.3149 39.8405 42.1158 39.8405 46.4654V46.8775C39.8405 51.7784 43.0876 53.8442 46.5868 53.8442H46.7049C48.0357 53.8442 49.1593 53.6605 49.8024 53.3717V55.2906C49.2275 55.5531 48.1145 55.75 46.5553 55.75H46.4398C41.3998 55.75 37.625 52.6525 37.625 46.9457V46.384C37.625 40.945 41.3551 37.375 46.7731 37.375H46.865C52.43 37.375 55.5642 41.1288 55.5642 45.3393V45.8905ZM44.9592 46.4417V47.0376C44.9592 48.5759 45.5551 49.1376 46.4844 49.1376C47.2981 49.1376 47.9649 48.6914 47.9649 47.1872V46.2239C47.9649 44.8694 47.243 44.3654 46.4634 44.3654C45.5551 44.3654 44.9592 45.0085 44.9592 46.4417Z" fill="#E6EBE0"/>
</svg>
