<svg width="70" height="70" viewBox="0 0 70 70" fill="none" xmlns="http://www.w3.org/2000/svg">
<path d="M70 35C70 54.33 54.33 70 35 70C15.67 70 0 54.33 0 35C0 15.67 15.67 0 35 0C54.33 0 70 15.67 70 35Z" fill="#39393A"/>
<path d="M56.0053 35.1312C56.0053 23.4605 46.6025 14 35.0052 14C23.4027 14.0026 14 23.4605 14 35.1339C14 45.6785 21.6807 54.4197 31.7188 56.0052V41.2396H26.39V35.1339H31.724V30.4745C31.724 25.1799 34.8609 22.2556 39.6567 22.2556C41.9563 22.2556 44.3581 22.6678 44.3581 22.6678V27.8652H41.7095C39.1029 27.8652 38.2891 29.4954 38.2891 31.1675V35.1312H44.1114L43.1821 41.237H38.2865V56.0026C48.3245 54.4171 56.0053 45.6759 56.0053 35.1312Z" fill="#E6EBE0"/>
</svg>
