<svg width="1042" height="509" viewBox="0 0 1042 509" fill="none" xmlns="http://www.w3.org/2000/svg">
<path d="M256 357V272.25H107V211L241.75 7.00001H317V211.25H346.5V272.25H317V357H256ZM177.75 211L256 211.25L255.75 90.25L177.75 211Z" fill="#E6EBE0"/>
<path d="M512.664 363.5C492.331 363.5 473.831 358.833 457.164 349.5C440.497 340 426.081 326.917 413.914 310.25C401.914 293.583 392.664 274.333 386.164 252.5C379.664 230.5 376.414 207 376.414 182C376.414 157 379.664 133.583 386.164 111.75C392.664 89.75 401.914 70.4167 413.914 53.75C426.081 37.0833 440.497 24.0833 457.164 14.75C473.831 5.25 492.331 0.5 512.664 0.5C532.997 0.5 551.497 5.25 568.164 14.75C584.831 24.0833 599.081 37.0833 610.914 53.75C622.914 70.4167 632.164 89.75 638.664 111.75C645.331 133.583 648.664 157 648.664 182C648.664 207 645.331 230.5 638.664 252.5C632.164 274.333 622.914 293.583 610.914 310.25C599.081 326.917 584.831 340 568.164 349.5C551.497 358.833 532.997 363.5 512.664 363.5ZM512.664 302.5C530.497 302.5 545.247 296.833 556.914 285.5C568.581 274.167 577.247 259.333 582.914 241C588.581 222.667 591.414 203 591.414 182C591.414 159.833 588.414 139.667 582.414 121.5C576.414 103.167 567.581 88.5833 555.914 77.75C544.247 66.9167 529.831 61.5 512.664 61.5C499.164 61.5 487.414 64.8333 477.414 71.5C467.581 78 459.414 86.9167 452.914 98.25C446.414 109.583 441.581 122.5 438.414 137C435.247 151.333 433.664 166.333 433.664 182C433.664 202.833 436.497 222.5 442.164 241C447.997 259.333 456.747 274.167 468.414 285.5C480.247 296.833 494.997 302.5 512.664 302.5Z" fill="#E6EBE0"/>
<path d="M832.66 357V272.25H683.66V211L818.41 7.00001H893.66V211.25H923.16V272.25H893.66V357H832.66ZM754.41 211L832.66 211.25L832.41 90.25L754.41 211Z" fill="#E6EBE0"/>
<path d="M779 496.5C779 503.404 773.404 509 766.5 509C759.596 509 754 503.404 754 496.5C754 489.596 759.596 484 766.5 484C773.404 484 779 489.596 779 496.5Z" fill="#E6EBE0"/>
<path d="M816.5 459C816.5 465.904 810.904 471.5 804 471.5C797.096 471.5 791.5 465.904 791.5 459C791.5 452.096 797.096 446.5 804 446.5C810.904 446.5 816.5 452.096 816.5 459Z" fill="#E6EBE0"/>
<path d="M779 421.5C779 428.404 773.404 434 766.5 434C759.596 434 754 428.404 754 421.5C754 414.596 759.596 409 766.5 409C773.404 409 779 414.596 779 421.5Z" fill="#E6EBE0"/>
<path d="M779 459C779 465.904 773.404 471.5 766.5 471.5C759.596 471.5 754 465.904 754 459C754 452.096 759.596 446.5 766.5 446.5C773.404 446.5 779 452.096 779 459Z" fill="#E6EBE0"/>
<path d="M288.5 459C288.5 465.904 282.904 471.5 276 471.5C269.096 471.5 263.5 465.904 263.5 459C263.5 452.096 269.096 446.5 276 446.5C282.904 446.5 288.5 452.096 288.5 459Z" fill="#E6EBE0"/>
<path d="M251 421.5C251 428.404 245.404 434 238.5 434C231.596 434 226 428.404 226 421.5C226 414.596 231.596 409 238.5 409C245.404 409 251 414.596 251 421.5Z" fill="#E6EBE0"/>
<path d="M866.5 421.5C866.5 428.404 860.904 434 854 434C847.096 434 841.5 428.404 841.5 421.5C841.5 414.596 847.096 409 854 409C860.904 409 866.5 414.596 866.5 421.5Z" fill="#E6EBE0"/>
<path d="M113 421.5C113 428.404 107.404 434 100.5 434C93.5964 434 88 428.404 88 421.5C88 414.596 93.5964 409 100.5 409C107.404 409 113 414.596 113 421.5Z" fill="#E6EBE0"/>
<path d="M376.5 421.5C376.5 428.404 370.904 434 364 434C357.096 434 351.5 428.404 351.5 421.5C351.5 414.596 357.096 409 364 409C370.904 409 376.5 414.596 376.5 421.5Z" fill="#E6EBE0"/>
<path d="M376.5 459C376.5 465.904 370.904 471.5 364 471.5C357.096 471.5 351.5 465.904 351.5 459C351.5 452.096 357.096 446.5 364 446.5C370.904 446.5 376.5 452.096 376.5 459Z" fill="#E6EBE0"/>
<path d="M339 421.5C339 428.404 333.404 434 326.5 434C319.596 434 314 428.404 314 421.5C314 414.596 319.596 409 326.5 409C333.404 409 339 414.596 339 421.5Z" fill="#E6EBE0"/>
<path d="M339 496.5C339 503.404 333.404 509 326.5 509C319.596 509 314 503.404 314 496.5C314 489.596 319.596 484 326.5 484C333.404 484 339 489.596 339 496.5Z" fill="#E6EBE0"/>
<path d="M640.5 421.5C640.5 428.404 634.904 434 628 434C621.096 434 615.5 428.404 615.5 421.5C615.5 414.596 621.096 409 628 409C634.904 409 640.5 414.596 640.5 421.5Z" fill="#E6EBE0"/>
<path d="M640.5 459C640.5 465.904 634.904 471.5 628 471.5C621.096 471.5 615.5 465.904 615.5 459C615.5 452.096 621.096 446.5 628 446.5C634.904 446.5 640.5 452.096 640.5 459Z" fill="#E6EBE0"/>
<path d="M603 421.5C603 428.404 597.404 434 590.5 434C583.596 434 578 428.404 578 421.5C578 414.596 583.596 409 590.5 409C597.404 409 603 414.596 603 421.5Z" fill="#E6EBE0"/>
<path d="M603 496.5C603 503.404 597.404 509 590.5 509C583.596 509 578 503.404 578 496.5C578 489.596 583.596 484 590.5 484C597.404 484 603 489.596 603 496.5Z" fill="#E6EBE0"/>
<path d="M62.5 421.5C62.5 428.404 56.9036 434 50 434C43.0964 434 37.5 428.404 37.5 421.5C37.5 414.596 43.0964 409 50 409C56.9036 409 62.5 414.596 62.5 421.5Z" fill="#E6EBE0"/>
<path d="M62.5 459C62.5 465.904 56.9036 471.5 50 471.5C43.0964 471.5 37.5 465.904 37.5 459C37.5 452.096 43.0964 446.5 50 446.5C56.9036 446.5 62.5 452.096 62.5 459Z" fill="#E6EBE0"/>
<path d="M25 421.5C25 428.404 19.4036 434 12.5 434C5.59644 434 0 428.404 0 421.5C0 414.596 5.59644 409 12.5 409C19.4036 409 25 414.596 25 421.5Z" fill="#E6EBE0"/>
<path d="M25 496.5C25 503.404 19.4036 509 12.5 509C5.59644 509 0 503.404 0 496.5C0 489.596 5.59644 484 12.5 484C19.4036 484 25 489.596 25 496.5Z" fill="#E6EBE0"/>
<path d="M728.5 421.5C728.5 428.404 722.904 434 716 434C709.096 434 703.5 428.404 703.5 421.5C703.5 414.596 709.096 409 716 409C722.904 409 728.5 414.596 728.5 421.5Z" fill="#E6EBE0"/>
<path d="M728.5 459C728.5 465.904 722.904 471.5 716 471.5C709.096 471.5 703.5 465.904 703.5 459C703.5 452.096 709.096 446.5 716 446.5C722.904 446.5 728.5 452.096 728.5 459Z" fill="#E6EBE0"/>
<path d="M691 459C691 465.904 685.404 471.5 678.5 471.5C671.596 471.5 666 465.904 666 459C666 452.096 671.596 446.5 678.5 446.5C685.404 446.5 691 452.096 691 459Z" fill="#E6EBE0"/>
<path d="M691 496.5C691 503.404 685.404 509 678.5 509C671.596 509 666 503.404 666 496.5C666 489.596 671.596 484 678.5 484C685.404 484 691 489.596 691 496.5Z" fill="#E6EBE0"/>
<path d="M464.5 421.5C464.5 428.404 458.904 434 452 434C445.096 434 439.5 428.404 439.5 421.5C439.5 414.596 445.096 409 452 409C458.904 409 464.5 414.596 464.5 421.5Z" fill="#E6EBE0"/>
<path d="M427 421.5C427 428.404 421.404 434 414.5 434C407.596 434 402 428.404 402 421.5C402 414.596 407.596 409 414.5 409C421.404 409 427 414.596 427 421.5Z" fill="#E6EBE0"/>
<path d="M954.5 421.5C954.5 428.404 948.904 434 942 434C935.096 434 929.5 428.404 929.5 421.5C929.5 414.596 935.096 409 942 409C948.904 409 954.5 414.596 954.5 421.5Z" fill="#E6EBE0"/>
<path d="M954.5 459C954.5 465.904 948.904 471.5 942 471.5C935.096 471.5 929.5 465.904 929.5 459C929.5 452.096 935.096 446.5 942 446.5C948.904 446.5 954.5 452.096 954.5 459Z" fill="#E6EBE0"/>
<path d="M917 421.5C917 428.404 911.404 434 904.5 434C897.596 434 892 428.404 892 421.5C892 414.596 897.596 409 904.5 409C911.404 409 917 414.596 917 421.5Z" fill="#E6EBE0"/>
<path d="M515 496.5C515 503.404 509.404 509 502.5 509C495.596 509 490 503.404 490 496.5C490 489.596 495.596 484 502.5 484C509.404 484 515 489.596 515 496.5Z" fill="#E6EBE0"/>
<path d="M552.5 459C552.5 465.904 546.904 471.5 540 471.5C533.096 471.5 527.5 465.904 527.5 459C527.5 452.096 533.096 446.5 540 446.5C546.904 446.5 552.5 452.096 552.5 459Z" fill="#E6EBE0"/>
<path d="M515 421.5C515 428.404 509.404 434 502.5 434C495.596 434 490 428.404 490 421.5C490 414.596 495.596 409 502.5 409C509.404 409 515 414.596 515 421.5Z" fill="#E6EBE0"/>
<path d="M1004.5 496.5C1004.5 503.404 998.904 509 992 509C985.096 509 979.5 503.404 979.5 496.5C979.5 489.596 985.096 484 992 484C998.904 484 1004.5 489.596 1004.5 496.5Z" fill="#E6EBE0"/>
<path d="M1042 459C1042 465.904 1036.4 471.5 1029.5 471.5C1022.6 471.5 1017 465.904 1017 459C1017 452.096 1022.6 446.5 1029.5 446.5C1036.4 446.5 1042 452.096 1042 459Z" fill="#E6EBE0"/>
<path d="M1004.5 421.5C1004.5 428.404 998.904 434 992 434C985.096 434 979.5 428.404 979.5 421.5C979.5 414.596 985.096 409 992 409C998.904 409 1004.5 414.596 1004.5 421.5Z" fill="#E6EBE0"/>
<path d="M163 496.5C163 503.404 157.404 509 150.5 509C143.596 509 138 503.404 138 496.5C138 489.596 143.596 484 150.5 484C157.404 484 163 489.596 163 496.5Z" fill="#E6EBE0"/>
<path d="M200.5 459C200.5 465.904 194.904 471.5 188 471.5C181.096 471.5 175.5 465.904 175.5 459C175.5 452.096 181.096 446.5 188 446.5C194.904 446.5 200.5 452.096 200.5 459Z" fill="#E6EBE0"/>
<path d="M163 421.5C163 428.404 157.404 434 150.5 434C143.596 434 138 428.404 138 421.5C138 414.596 143.596 409 150.5 409C157.404 409 163 414.596 163 421.5Z" fill="#E6EBE0"/>
</svg>
