<svg width="1143" height="573" viewBox="0 0 1143 573" fill="none" xmlns="http://www.w3.org/2000/svg">
<g clip-path="url(#clip0_341_286)">
<path d="M1120 505.2C1121.49 505.2 1119.42 479.987 1118.27 467.222C1117.9 463.121 1114.46 460 1110.34 460H1084.37C1080.46 460 1077.13 462.809 1076.54 466.67C1074.6 479.243 1070.97 505.2 1074 505.2" stroke="#E6EBE0" stroke-width="3.2"/>
<path d="M1059.6 304.843C1059.6 321.19 1046.35 334.443 1030 334.443C1013.65 334.443 1000.4 321.19 1000.4 304.843C1000.4 288.495 1013.65 275.243 1030 275.243C1046.35 275.243 1059.6 288.495 1059.6 304.843Z" fill="#E6EBE0"/>
<path d="M970 361.6C970 348.345 980.745 337.6 994 337.6H1062.8C1076.05 337.6 1086.8 348.345 1086.8 361.6V378.4H970V361.6Z" fill="#E6EBE0"/>
<path d="M994 378.4H1069.2V456.8H994V378.4Z" fill="#E6EBE0"/>
<path d="M994 455.2H1030V574.8C1030 584.741 1021.94 592.8 1012 592.8C1002.06 592.8 994 584.741 994 574.8V455.2Z" fill="#E6EBE0"/>
<path d="M970 372.8H990.8V452.8C990.8 458.544 986.144 463.2 980.4 463.2C974.656 463.2 970 458.544 970 452.8V372.8Z" fill="#E6EBE0"/>
<path d="M1066.52 360.266L1076.75 358.444L1078.8 346C1078.8 346 1087.2 349.2 1089.75 369.958C1090.4 375.226 1092.53 383.294 1092.53 383.294L1107.07 453.143C1108.24 458.758 1104.61 464.126 1098.96 465.133C1093.32 466.139 1087.79 462.402 1086.62 456.787L1066.52 360.266Z" fill="#E6EBE0"/>
<path d="M1033.2 455.2H1069.2V574.8C1069.2 584.741 1061.14 592.8 1051.2 592.8C1041.26 592.8 1033.2 584.741 1033.2 574.8V455.2Z" fill="#E6EBE0"/>
<path d="M1077.2 471.2L1090.8 479.2L1092.93 491H1082L1077.2 471.2Z" fill="#E6EBE0"/>
<path d="M1082 492.8C1082 504.288 1088.81 513.6 1097.2 513.6C1105.59 513.6 1112.4 504.288 1112.4 492.8C1112.4 481.313 1105.59 476.4 1097.2 476.4C1088.81 476.4 1082 481.313 1082 492.8Z" fill="#E6EBE0"/>
<path d="M1117.2 471.6L1103.6 479.6L1101.47 491.4H1112.4L1117.2 471.6Z" fill="#E6EBE0"/>
<path d="M1074 503.544C1074 500.514 1075.71 497.744 1078.42 496.389L1079.31 495.944C1090.57 490.314 1103.83 490.314 1115.09 495.944L1115.98 496.389C1118.69 497.744 1120.4 500.514 1120.4 503.544V547.4H1109.77L1106.48 550.2L1101.84 538.6C1099.4 535.65 1094.9 535.561 1092.34 538.412L1092.17 538.6L1087.92 550.2L1084.44 547.4H1074V503.544Z" fill="#E6EBE0"/>
<path d="M1074 547.2H1088.4V587.2C1088.4 591.177 1085.18 594.4 1081.2 594.4C1077.22 594.4 1074 591.177 1074 587.2V547.2Z" fill="#E6EBE0"/>
<path d="M1106 547H1120.4V587C1120.4 590.977 1117.18 594.2 1113.2 594.2C1109.22 594.2 1106 590.977 1106 587V547Z" fill="#E6EBE0"/>
<path d="M1107.6 552.022C1107.6 563.137 1107.6 557.972 1103.52 552.203C1100.4 547.799 1094 547.799 1090.88 552.203C1086.8 557.973 1086.8 563.137 1086.8 552.022C1086.8 545.824 1091.46 540.8 1097.2 540.8C1102.94 540.8 1107.6 545.824 1107.6 552.022Z" fill="#E6EBE0"/>
<path d="M1088.4 535.2H1107.6V544H1088.4V535.2Z" fill="#E6EBE0"/>
<path d="M994 337.6H1012.8C1012.8 337.6 1023.68 345.2 1031.6 345.2C1039.52 345.2 1050.4 337.6 1050.4 337.6H1059.8C1065.72 337.6 1071.67 338.782 1076.61 342.053C1078.44 343.266 1080.25 344.626 1081.6 346C1090.84 355.419 1091.2 378.4 1091.2 378.4H1067.6L1069.2 366.8V454.4H994V337.6Z" fill="#E6EBE0"/>
<path d="M1012.4 398.8C1012.4 398.8 1029.52 396 1021.6 396C1013.68 396 1010.8 337.6 1010.8 337.6H1001.4C995.421 337.6 989.392 338.134 983.829 340.324C980.8 341.517 977.722 343.046 976 344.8C966.757 354.219 970 378.4 970 378.4H993.6L992 366.8V378.4H998.4V454.4H1012.4V398.8Z" fill="#E6EBE0"/>
<g filter="url(#filter0_d_341_286)">
<rect x="1092.4" y="502.4" width="9.6" height="19.2" rx="4" fill="#E6EBE0"/>
</g>
<g filter="url(#filter1_d_341_286)">
<path d="M1082 492.8C1082 504.288 1088.81 513.6 1097.2 513.6C1105.59 513.6 1112.4 504.288 1112.4 492.8C1112.4 481.313 1105.59 476.4 1097.2 476.4C1088.81 476.4 1082 481.313 1082 492.8Z" fill="#E6EBE0"/>
</g>
<path d="M0.5 589V79C0.5 79 1.25 76.5 2.75 71.5C4.25 66.5 8.5 64 15.5 64H195.5C195.5 86.5 195.25 103 194.75 113.5C194.25 124 193 131 191 134.5C189 137.5 185.5 139 180.5 139H84.5V514H190.25C190.25 537.5 190 554.5 189.5 565C189 575.5 187.75 582.25 185.75 585.25C183.75 587.75 180.25 589 175.25 589H0.5ZM6.5 343V266.5H175.25C175.25 298 174.5 318.75 173 328.75C172 338.25 168 343 161 343H6.5Z" fill="#E6EBE0"/>
<path d="M217.854 589V79C217.854 79 218.604 76.5 220.104 71.5C221.604 66.5 225.854 64 232.854 64H412.854C412.854 86.5 412.604 102.75 412.104 112.75C411.604 122.75 410.354 129 408.354 131.5C406.354 134 402.854 135.25 397.854 135.25H301.854V574C301.854 574 301.354 576.5 300.354 581.5C299.854 586.5 295.854 589 288.354 589H217.854ZM223.854 343V266.5H392.604C392.604 298 391.854 318.75 390.354 328.75C389.354 338.25 385.354 343 378.354 343H223.854Z" fill="#E6EBE0"/>
<path d="M431.545 589V100.75C431.545 88.25 432.795 79.5 435.295 74.5C437.795 69.5 445.045 66.5 457.045 65.5C469.045 64.5 489.045 64 517.045 64V574C517.045 579 515.795 582.5 513.295 584.5C510.795 586.5 503.545 587.75 491.545 588.25C480.045 588.75 460.045 589 431.545 589Z" fill="#E6EBE0"/>
<path d="M670.666 593.5C656.666 593.5 645.916 589.25 638.416 580.75C630.916 572.25 625.916 561.75 623.416 549.25C618.916 529.25 613.666 504.25 607.666 474.25C602.166 443.75 596.166 411.25 589.666 376.75C583.166 341.75 576.666 307.25 570.166 273.25C564.166 238.75 558.666 207.5 553.666 179.5C548.666 151 544.666 128.25 541.666 111.25C538.666 94.25 537.166 85.75 537.166 85.75C535.666 77.25 535.666 71.5 537.166 68.5C538.666 65.5 544.916 64 555.916 64H626.416L663.916 308.5C667.916 333 671.416 358.5 674.416 385C677.916 411.5 681.166 436.5 684.166 460C687.166 483.5 689.666 503.5 691.666 520C693.166 503.5 695.166 483.5 697.666 460C700.166 436.5 702.916 411.5 705.916 385C709.416 358.5 712.916 333 716.416 308.5L748.666 86.5C749.666 78.5 751.416 72.75 753.916 69.25C756.416 65.75 761.416 64 768.916 64H843.166L744.166 589C731.666 590.5 720.166 591.5 709.666 592C699.666 593 686.666 593.5 670.666 593.5Z" fill="#E6EBE0"/>
<path d="M861.857 589V100.75C861.857 88.25 863.107 79.5 865.607 74.5C868.107 69.5 875.357 66.5 887.357 65.5C899.357 64.5 919.357 64 947.357 64V574C947.357 579 946.107 582.5 943.607 584.5C941.107 586.5 933.857 587.75 921.857 588.25C910.357 588.75 890.357 589 861.857 589Z" fill="#E6EBE0"/>
<path d="M1.8 61V20.2C1.8 20.2 1.86 20 1.98 19.6C2.1 19.2 2.44 19 3 19H17.4C17.4 20.8 17.38 22.12 17.34 22.96C17.3 23.8 17.2 24.36 17.04 24.64C16.88 24.88 16.6 25 16.2 25H8.52V55H16.98C16.98 56.88 16.96 58.24 16.92 59.08C16.88 59.92 16.78 60.46 16.62 60.7C16.46 60.9 16.18 61 15.78 61H1.8ZM2.28 41.32V35.2H15.78C15.78 37.72 15.72 39.38 15.6 40.18C15.52 40.94 15.2 41.32 14.64 41.32H2.28ZM19.7883 61V20.2C19.7883 20.2 19.8483 20 19.9683 19.6C20.0883 19.2 20.4283 19 20.9883 19H35.3883C35.3883 20.8 35.3683 22.1 35.3283 22.9C35.2883 23.7 35.1883 24.2 35.0283 24.4C34.8683 24.6 34.5883 24.7 34.1883 24.7H26.5083V59.8C26.5083 59.8 26.4683 60 26.3883 60.4C26.3483 60.8 26.0283 61 25.4283 61H19.7883ZM20.2683 41.32V35.2H33.7683C33.7683 37.72 33.7083 39.38 33.5883 40.18C33.5083 40.94 33.1883 41.32 32.6283 41.32H20.2683ZM37.4836 61V21.94C37.4836 20.94 37.5836 20.24 37.7836 19.84C37.9836 19.44 38.5636 19.2 39.5236 19.12C40.4836 19.04 42.0836 19 44.3236 19V59.8C44.3236 60.2 44.2236 60.48 44.0236 60.64C43.8236 60.8 43.2436 60.9 42.2836 60.94C41.3636 60.98 39.7636 61 37.4836 61ZM57.3333 61.6C55.9733 61.6 54.7533 61.42 53.6733 61.06C52.5933 60.74 51.6533 60.16 50.8533 59.32C50.0533 58.48 49.3933 57.3 48.8733 55.78C48.3533 54.26 47.9533 52.32 47.6733 49.96C47.4333 47.6 47.3133 44.74 47.3133 41.38C47.3133 37.46 47.5533 34.14 48.0333 31.42C48.5133 28.7 49.1533 26.5 49.9533 24.82C50.7933 23.1 51.7333 21.78 52.7733 20.86C53.8133 19.9 54.8933 19.26 56.0133 18.94C57.1333 18.58 58.2333 18.4 59.3133 18.4C61.0333 18.4 62.2933 18.58 63.0933 18.94C63.8933 19.26 64.4133 19.7 64.6533 20.26C64.8933 20.78 65.0133 21.34 65.0133 21.94C65.0133 22.74 64.9133 23.5 64.7133 24.22C64.5133 24.9 64.2933 25.5 64.0533 26.02C63.8133 25.82 63.5333 25.66 63.2133 25.54C62.8933 25.38 62.5333 25.26 62.1333 25.18C61.7733 25.06 61.3733 25 60.9333 25C60.2533 25 59.5933 25.14 58.9533 25.42C58.3133 25.66 57.7133 26.12 57.1533 26.8C56.5933 27.48 56.1133 28.42 55.7133 29.62C55.3133 30.82 54.9933 32.34 54.7533 34.18C54.5133 36.02 54.3933 38.24 54.3933 40.84C54.3933 43.44 54.4733 45.6 54.6333 47.32C54.8333 49.04 55.1133 50.4 55.4733 51.4C55.8333 52.36 56.3133 53.06 56.9133 53.5C57.5133 53.9 58.2333 54.1 59.0733 54.1C59.9933 54.1 60.8533 54.02 61.6533 53.86C62.4933 53.7 63.1933 53.48 63.7533 53.2C63.9933 53.72 64.1933 54.34 64.3533 55.06C64.5533 55.74 64.6533 56.44 64.6533 57.16C64.6533 58.08 64.3533 58.88 63.7533 59.56C63.1933 60.24 62.3533 60.74 61.2333 61.06C60.1533 61.42 58.8533 61.6 57.3333 61.6ZM67.425 61V21.94C67.425 20.94 67.525 20.24 67.725 19.84C67.925 19.44 68.505 19.2 69.465 19.12C70.425 19.04 72.025 19 74.265 19V59.8C74.265 60.2 74.165 60.48 73.965 60.64C73.765 60.8 73.185 60.9 72.225 60.94C71.305 60.98 69.705 61 67.425 61ZM77.8547 61V20.2C77.8547 20.2 77.9147 20 78.0347 19.6C78.1547 19.2 78.4947 19 79.0547 19H93.4547C93.4547 20.8 93.4347 22.12 93.3947 22.96C93.3547 23.8 93.2547 24.36 93.0947 24.64C92.9347 24.88 92.6547 25 92.2547 25H84.5747V55H93.0347C93.0347 56.88 93.0147 58.24 92.9747 59.08C92.9347 59.92 92.8347 60.46 92.6747 60.7C92.5147 60.9 92.2347 61 91.8347 61H77.8547ZM78.3347 41.32V35.2H91.8347C91.8347 37.72 91.7747 39.38 91.6547 40.18C91.5747 40.94 91.2547 41.32 90.6947 41.32H78.3347ZM111.623 61L105.263 44.92C104.903 43.96 104.523 42.86 104.123 41.62C103.763 40.38 103.403 39.08 103.043 37.72C102.723 36.36 102.423 35.04 102.143 33.76C101.863 32.48 101.603 31.32 101.363 30.28C101.163 29.24 101.003 28.42 100.883 27.82C100.763 27.18 100.703 26.86 100.703 26.86L96.743 22.9L97.043 19H102.383L108.623 34.78C109.023 35.82 109.423 37 109.823 38.32C110.223 39.6 110.583 40.92 110.903 42.28C111.263 43.6 111.583 44.88 111.863 46.12C112.143 47.36 112.383 48.48 112.583 49.48C112.783 50.48 112.943 51.28 113.063 51.88C113.183 52.44 113.243 52.72 113.243 52.72L117.323 57.1L116.843 61H111.623ZM95.843 61V20.2C95.843 19.4 96.243 19 97.043 19L102.563 20.2L101.543 30.34C101.663 31.18 101.763 32.04 101.843 32.92C101.923 33.8 102.003 34.7 102.083 35.62C102.163 36.5 102.223 37.38 102.263 38.26C102.343 39.1 102.403 39.94 102.443 40.78C102.483 41.62 102.503 42.44 102.503 43.24C102.543 44 102.563 44.72 102.563 45.4V59.8C102.563 60.2 102.463 60.48 102.263 60.64C102.063 60.8 101.503 60.9 100.583 60.94C99.663 60.98 98.083 61 95.843 61ZM116.843 61L111.323 59.8L112.223 48.28C112.103 47.36 112.003 46.48 111.923 45.64C111.843 44.76 111.763 43.92 111.683 43.12C111.643 42.32 111.583 41.54 111.503 40.78C111.463 40.02 111.423 39.28 111.383 38.56C111.383 37.8 111.363 37.06 111.323 36.34C111.323 35.62 111.323 34.9 111.323 34.18V20.2C111.323 19.8 111.423 19.52 111.623 19.36C111.823 19.2 112.383 19.1 113.303 19.06C114.263 19.02 115.843 19 118.043 19V59.8C118.043 60.6 117.643 61 116.843 61ZM127.744 61V19.6C127.744 19.6 127.784 19.6 127.864 19.6C127.984 19.6 128.344 19.6 128.944 19.6H133.264C133.864 19.6 134.204 19.6 134.284 19.6C134.404 19.6 134.464 19.6 134.464 19.6V59.8C134.464 60.2 134.364 60.48 134.164 60.64C133.964 60.8 133.384 60.9 132.424 60.94C131.504 60.98 129.944 61 127.744 61ZM120.424 25.3V20.2C120.424 19.4 120.824 19 121.624 19H142.024V24.1C142.024 24.58 141.924 24.9 141.724 25.06C141.564 25.22 141.264 25.3 140.824 25.3H120.424ZM144.417 61V20.2C144.417 20.2 144.477 20 144.597 19.6C144.717 19.2 145.057 19 145.617 19H160.017C160.017 20.8 159.997 22.12 159.957 22.96C159.917 23.8 159.817 24.36 159.657 24.64C159.497 24.88 159.217 25 158.817 25H151.137V55H159.597C159.597 56.88 159.577 58.24 159.537 59.08C159.497 59.92 159.397 60.46 159.237 60.7C159.077 60.9 158.797 61 158.397 61H144.417ZM144.897 41.32V35.2H158.397C158.397 37.72 158.337 39.38 158.217 40.18C158.137 40.94 157.817 41.32 157.257 41.32H144.897ZM180.084 61.36C178.964 61.36 178.104 61.02 177.504 60.34C176.904 59.66 176.504 58.82 176.304 57.82C175.944 56.22 175.524 54.22 175.044 51.82C174.604 49.38 174.124 46.78 173.604 44.02C173.084 41.22 172.564 38.46 172.044 35.74C171.564 32.98 171.124 30.48 170.724 28.24C170.324 25.96 170.004 24.14 169.764 22.78C169.524 21.42 169.404 20.74 169.404 20.74C169.284 20.06 169.284 19.6 169.404 19.36C169.524 19.12 170.024 19 170.904 19H176.544L179.544 38.56C179.864 40.52 180.144 42.56 180.384 44.68C180.664 46.8 180.924 48.8 181.164 50.68C181.404 52.56 181.604 54.16 181.764 55.48C181.884 54.16 182.044 52.56 182.244 50.68C182.444 48.8 182.664 46.8 182.904 44.68C183.184 42.56 183.464 40.52 183.744 38.56L186.324 20.8C186.404 20.16 186.544 19.7 186.744 19.42C186.944 19.14 187.344 19 187.944 19H193.884L185.964 61C184.964 61.12 184.044 61.2 183.204 61.24C182.404 61.32 181.364 61.36 180.084 61.36ZM195.98 61V21.94C195.98 20.94 196.08 20.24 196.28 19.84C196.48 19.44 197.06 19.2 198.02 19.12C198.98 19.04 200.58 19 202.82 19V59.8C202.82 60.2 202.72 60.48 202.52 60.64C202.32 60.8 201.74 60.9 200.78 60.94C199.86 60.98 198.26 61 195.98 61ZM213.429 61.6C210.749 61.6 208.769 61.2 207.489 60.4C206.209 59.56 205.569 58.62 205.569 57.58C205.569 56.9 205.689 56.12 205.929 55.24C206.169 54.32 206.549 53.48 207.069 52.72C207.709 53.28 208.529 53.76 209.529 54.16C210.529 54.52 211.569 54.7 212.649 54.7C214.289 54.7 215.429 54.28 216.069 53.44C216.709 52.6 217.029 51.48 217.029 50.08C217.029 49.04 216.829 48.06 216.429 47.14C216.069 46.22 215.369 45.08 214.329 43.72L208.869 36.4C207.509 34.56 206.609 32.96 206.169 31.6C205.729 30.24 205.509 28.9 205.509 27.58C205.509 24.86 206.409 22.66 208.209 20.98C210.009 19.26 212.669 18.4 216.189 18.4C219.229 18.4 221.349 18.7 222.549 19.3C223.749 19.9 224.349 20.72 224.349 21.76C224.349 22.32 224.229 22.94 223.989 23.62C223.749 24.26 223.349 24.9 222.789 25.54C222.469 25.3 221.809 25.04 220.809 24.76C219.809 24.48 218.729 24.34 217.569 24.34C216.089 24.34 214.929 24.6 214.089 25.12C213.249 25.6 212.829 26.36 212.829 27.4C212.829 28.32 212.989 29.18 213.309 29.98C213.669 30.74 214.229 31.66 214.989 32.74L220.749 40.12C222.189 41.96 223.149 43.62 223.629 45.1C224.109 46.58 224.349 48.18 224.349 49.9C224.349 51.9 224.029 53.8 223.389 55.6C222.789 57.36 221.709 58.8 220.149 59.92C218.589 61.04 216.349 61.6 213.429 61.6ZM237.774 61.6C235.414 61.6 233.514 61.28 232.074 60.64C230.674 60 229.594 59.14 228.834 58.06C228.114 56.94 227.634 55.66 227.394 54.22C227.154 52.74 227.034 51.16 227.034 49.48V20.26C227.034 19.82 227.134 19.52 227.334 19.36C227.534 19.2 228.114 19.1 229.074 19.06C230.034 19.02 231.674 19 233.994 19V49.72C233.994 50.68 234.034 51.52 234.114 52.24C234.234 52.96 234.434 53.56 234.714 54.04C234.994 54.52 235.374 54.88 235.854 55.12C236.374 55.32 237.014 55.42 237.774 55.42C238.454 55.42 239.094 55.36 239.694 55.24C240.334 55.08 240.854 54.9 241.254 54.7V20.26C241.254 19.82 241.354 19.52 241.554 19.36C241.754 19.2 242.314 19.1 243.234 19.06C244.194 19.02 245.814 19 248.094 19V59.32C247.374 59.8 246.114 60.3 244.314 60.82C242.514 61.34 240.334 61.6 237.774 61.6ZM254.282 61.12C253.842 61.12 253.222 61.1 252.422 61.06C251.622 61.02 250.822 60.96 250.022 60.88L260.042 20.14C260.202 19.3 261.102 18.88 262.742 18.88C263.302 18.88 263.862 18.9 264.422 18.94C265.022 18.98 265.522 19.04 265.922 19.12L275.942 59.92C276.022 60.32 275.882 60.62 275.522 60.82C275.162 61.02 274.302 61.12 272.942 61.12C272.502 61.12 271.962 61.1 271.322 61.06C270.682 61.06 269.922 61.04 269.042 61L264.662 39.82C264.462 38.74 264.262 37.58 264.062 36.34C263.862 35.06 263.682 33.74 263.522 32.38C263.362 31.02 263.222 29.72 263.102 28.48C262.982 29.72 262.822 31.02 262.622 32.38C262.462 33.74 262.282 35.06 262.082 36.34C261.922 37.58 261.722 38.74 261.482 39.82L257.342 59.86C257.262 60.26 257.062 60.58 256.742 60.82C256.462 61.02 255.642 61.12 254.282 61.12ZM256.862 51.46V45.4H270.422V51.46H256.862ZM277.894 61V20.68C277.894 20.12 277.994 19.72 278.194 19.48C278.394 19.24 278.954 19.1 279.874 19.06C280.834 19.02 282.414 19 284.614 19V54.7H293.074V59.8C293.074 60.28 292.954 60.6 292.714 60.76C292.514 60.92 292.234 61 291.874 61H277.894Z" fill="#E6EBE0"/>
</g>
<defs>
<filter id="filter0_d_341_286" x="1089.2" y="502.4" width="16" height="25.6002" filterUnits="userSpaceOnUse" color-interpolation-filters="sRGB">
<feFlood flood-opacity="0" result="BackgroundImageFix"/>
<feColorMatrix in="SourceAlpha" type="matrix" values="0 0 0 0 0 0 0 0 0 0 0 0 0 0 0 0 0 0 127 0" result="hardAlpha"/>
<feOffset dy="3.2"/>
<feGaussianBlur stdDeviation="1.6"/>
<feComposite in2="hardAlpha" operator="out"/>
<feColorMatrix type="matrix" values="0 0 0 0 0 0 0 0 0 0 0 0 0 0 0 0 0 0 0.25 0"/>
<feBlend mode="normal" in2="BackgroundImageFix" result="effect1_dropShadow_341_286"/>
<feBlend mode="normal" in="SourceGraphic" in2="effect1_dropShadow_341_286" result="shape"/>
</filter>
<filter id="filter1_d_341_286" x="1078.8" y="476.4" width="36.8" height="43.6002" filterUnits="userSpaceOnUse" color-interpolation-filters="sRGB">
<feFlood flood-opacity="0" result="BackgroundImageFix"/>
<feColorMatrix in="SourceAlpha" type="matrix" values="0 0 0 0 0 0 0 0 0 0 0 0 0 0 0 0 0 0 127 0" result="hardAlpha"/>
<feOffset dy="3.2"/>
<feGaussianBlur stdDeviation="1.6"/>
<feComposite in2="hardAlpha" operator="out"/>
<feColorMatrix type="matrix" values="0 0 0 0 0 0 0 0 0 0 0 0 0 0 0 0 0 0 0.25 0"/>
<feBlend mode="normal" in2="BackgroundImageFix" result="effect1_dropShadow_341_286"/>
<feBlend mode="normal" in="SourceGraphic" in2="effect1_dropShadow_341_286" result="shape"/>
</filter>
<clipPath id="clip0_341_286">
<rect width="1143" height="573" fill="white"/>
</clipPath>
</defs>
</svg>
