<svg width="1143" height="573" viewBox="0 0 1143 573" fill="none" xmlns="http://www.w3.org/2000/svg">
<g clip-path="url(#clip0_341_286)">
<path d="M1120 505.2C1121.49 505.2 1119.42 479.987 1118.27 467.222C1117.9 463.121 1114.46 460 1110.34 460H1084.37C1080.46 460 1077.13 462.809 1076.54 466.67C1074.6 479.243 1070.97 505.2 1074 505.2" stroke="#39393A" stroke-width="3.2"/>
<path d="M1059.6 304.843C1059.6 321.19 1046.35 334.443 1030 334.443C1013.65 334.443 1000.4 321.19 1000.4 304.843C1000.4 288.495 1013.65 275.243 1030 275.243C1046.35 275.243 1059.6 288.495 1059.6 304.843Z" fill="#39393A"/>
<path d="M970 361.6C970 348.345 980.745 337.6 994 337.6H1062.8C1076.05 337.6 1086.8 348.345 1086.8 361.6V378.4H970V361.6Z" fill="#39393A"/>
<path d="M994 378.4H1069.2V456.8H994V378.4Z" fill="#39393A"/>
<path d="M994 455.2H1030V574.8C1030 584.741 1021.94 592.8 1012 592.8C1002.06 592.8 994 584.741 994 574.8V455.2Z" fill="#39393A"/>
<path d="M970 372.8H990.8V452.8C990.8 458.544 986.144 463.2 980.4 463.2C974.656 463.2 970 458.544 970 452.8V372.8Z" fill="#39393A"/>
<path d="M1066.52 360.266L1076.75 358.444L1078.8 346C1078.8 346 1087.2 349.2 1089.75 369.958C1090.4 375.226 1092.53 383.294 1092.53 383.294L1107.07 453.143C1108.24 458.758 1104.61 464.126 1098.96 465.133C1093.32 466.139 1087.79 462.402 1086.62 456.787L1066.52 360.266Z" fill="#39393A"/>
<path d="M1033.2 455.2H1069.2V574.8C1069.2 584.741 1061.14 592.8 1051.2 592.8C1041.26 592.8 1033.2 584.741 1033.2 574.8V455.2Z" fill="#39393A"/>
<path d="M1077.2 471.2L1090.8 479.2L1092.93 491H1082L1077.2 471.2Z" fill="#39393A"/>
<path d="M1082 492.8C1082 504.288 1088.81 513.6 1097.2 513.6C1105.59 513.6 1112.4 504.288 1112.4 492.8C1112.4 481.313 1105.59 476.4 1097.2 476.4C1088.81 476.4 1082 481.313 1082 492.8Z" fill="#39393A"/>
<path d="M1117.2 471.6L1103.6 479.6L1101.47 491.4H1112.4L1117.2 471.6Z" fill="#39393A"/>
<path d="M1074 503.544C1074 500.514 1075.71 497.744 1078.42 496.389L1079.31 495.944C1090.57 490.314 1103.83 490.314 1115.09 495.944L1115.98 496.389C1118.69 497.744 1120.4 500.514 1120.4 503.544V547.4H1109.77L1106.48 550.2L1101.84 538.6C1099.4 535.65 1094.9 535.561 1092.34 538.412L1092.17 538.6L1087.92 550.2L1084.44 547.4H1074V503.544Z" fill="#39393A"/>
<path d="M1074 547.2H1088.4V587.2C1088.4 591.177 1085.18 594.4 1081.2 594.4C1077.22 594.4 1074 591.177 1074 587.2V547.2Z" fill="#39393A"/>
<path d="M1106 547H1120.4V587C1120.4 590.977 1117.18 594.2 1113.2 594.2C1109.22 594.2 1106 590.977 1106 587V547Z" fill="#39393A"/>
<path d="M1107.6 552.022C1107.6 563.137 1107.6 557.972 1103.52 552.203C1100.4 547.799 1094 547.799 1090.88 552.203C1086.8 557.973 1086.8 563.137 1086.8 552.022C1086.8 545.824 1091.46 540.8 1097.2 540.8C1102.94 540.8 1107.6 545.824 1107.6 552.022Z" fill="#39393A"/>
<path d="M1088.4 535.2H1107.6V544H1088.4V535.2Z" fill="#39393A"/>
<path d="M994 337.6H1012.8C1012.8 337.6 1023.68 345.2 1031.6 345.2C1039.52 345.2 1050.4 337.6 1050.4 337.6H1059.8C1065.72 337.6 1071.67 338.782 1076.61 342.053C1078.44 343.266 1080.25 344.626 1081.6 346C1090.84 355.419 1091.2 378.4 1091.2 378.4H1067.6L1069.2 366.8V454.4H994V337.6Z" fill="#39393A"/>
<path d="M1012.4 398.8C1012.4 398.8 1029.52 396 1021.6 396C1013.68 396 1010.8 337.6 1010.8 337.6H1001.4C995.421 337.6 989.392 338.134 983.829 340.324C980.8 341.517 977.722 343.046 976 344.8C966.757 354.219 970 378.4 970 378.4H993.6L992 366.8V378.4H998.4V454.4H1012.4V398.8Z" fill="#39393A"/>
<g filter="url(#filter0_d_341_286)">
<rect x="1092.4" y="502.4" width="9.6" height="19.2" rx="4" fill="#39393A"/>
</g>
<g filter="url(#filter1_d_341_286)">
<path d="M1082 492.8C1082 504.288 1088.81 513.6 1097.2 513.6C1105.59 513.6 1112.4 504.288 1112.4 492.8C1112.4 481.313 1105.59 476.4 1097.2 476.4C1088.81 476.4 1082 481.313 1082 492.8Z" fill="#39393A"/>
</g>
<path d="M0.5 589V78.9999C0.5 78.9999 1.25 76.4999 2.75 71.4999C4.25 66.4999 8.5 63.9999 15.5 63.9999H195.5C195.5 86.4999 195.25 103 194.75 113.5C194.25 124 193 131 191 134.5C189 137.5 185.5 139 180.5 139H84.5V514H190.25C190.25 537.5 190 554.5 189.5 565C189 575.5 187.75 582.25 185.75 585.25C183.75 587.75 180.25 589 175.25 589H0.5ZM6.5 343V266.5H175.25C175.25 298 174.5 318.75 173 328.75C172 338.25 168 343 161 343H6.5Z" fill="#39393A"/>
<path d="M217.854 589V78.9999C217.854 78.9999 218.604 76.4999 220.104 71.4999C221.604 66.4999 225.854 63.9999 232.854 63.9999H412.854C412.854 86.4999 412.604 102.75 412.104 112.75C411.604 122.75 410.354 129 408.354 131.5C406.354 134 402.854 135.25 397.854 135.25H301.854V574C301.854 574 301.354 576.5 300.354 581.5C299.854 586.5 295.854 589 288.354 589H217.854ZM223.854 343V266.5H392.604C392.604 298 391.854 318.75 390.354 328.75C389.354 338.25 385.354 343 378.354 343H223.854Z" fill="#39393A"/>
<path d="M431.545 589V100.75C431.545 88.2499 432.795 79.4999 435.295 74.4999C437.795 69.4999 445.045 66.4999 457.045 65.4999C469.045 64.4999 489.045 63.9999 517.045 63.9999V574C517.045 579 515.795 582.5 513.295 584.5C510.795 586.5 503.545 587.75 491.545 588.25C480.045 588.75 460.045 589 431.545 589Z" fill="#39393A"/>
<path d="M670.666 593.5C656.666 593.5 645.916 589.25 638.416 580.75C630.916 572.25 625.916 561.75 623.416 549.25C618.916 529.25 613.666 504.25 607.666 474.25C602.166 443.75 596.166 411.25 589.666 376.75C583.166 341.75 576.666 307.25 570.166 273.25C564.166 238.75 558.666 207.5 553.666 179.5C548.666 151 544.666 128.25 541.666 111.25C538.666 94.2499 537.166 85.7499 537.166 85.7499C535.666 77.2499 535.666 71.4999 537.166 68.4999C538.666 65.4999 544.916 63.9999 555.916 63.9999H626.416L663.916 308.5C667.916 333 671.416 358.5 674.416 385C677.916 411.5 681.166 436.5 684.166 460C687.166 483.5 689.666 503.5 691.666 520C693.166 503.5 695.166 483.5 697.666 460C700.166 436.5 702.916 411.5 705.916 385C709.416 358.5 712.916 333 716.416 308.5L748.666 86.4999C749.666 78.4999 751.416 72.7499 753.916 69.2499C756.416 65.7499 761.416 63.9999 768.916 63.9999H843.166L744.166 589C731.666 590.5 720.166 591.5 709.666 592C699.666 593 686.666 593.5 670.666 593.5Z" fill="#39393A"/>
<path d="M861.857 589V100.75C861.857 88.2499 863.107 79.4999 865.607 74.4999C868.107 69.4999 875.357 66.4999 887.357 65.4999C899.357 64.4999 919.357 63.9999 947.357 63.9999V574C947.357 579 946.107 582.5 943.607 584.5C941.107 586.5 933.857 587.75 921.857 588.25C910.357 588.75 890.357 589 861.857 589Z" fill="#39393A"/>
<path d="M1.8 60.9999V20.1999C1.8 20.1999 1.86 19.9999 1.98 19.5999C2.1 19.1999 2.44 18.9999 3 18.9999H17.4C17.4 20.7999 17.38 22.1199 17.34 22.9599C17.3 23.7999 17.2 24.3599 17.04 24.6399C16.88 24.8799 16.6 24.9999 16.2 24.9999H8.52V54.9999H16.98C16.98 56.8799 16.96 58.2399 16.92 59.0799C16.88 59.9199 16.78 60.4599 16.62 60.6999C16.46 60.8999 16.18 60.9999 15.78 60.9999H1.8ZM2.28 41.3199V35.1999H15.78C15.78 37.7199 15.72 39.3799 15.6 40.1799C15.52 40.9399 15.2 41.3199 14.64 41.3199H2.28Z" fill="#39393A"/>
<path d="M19.7883 60.9999V20.1999C19.7883 20.1999 19.8483 19.9999 19.9683 19.5999C20.0883 19.1999 20.4283 18.9999 20.9883 18.9999H35.3883C35.3883 20.7999 35.3683 22.0999 35.3283 22.8999C35.2883 23.6999 35.1883 24.1999 35.0283 24.3999C34.8683 24.5999 34.5883 24.6999 34.1883 24.6999H26.5083V59.7999C26.5083 59.7999 26.4683 59.9999 26.3883 60.3999C26.3483 60.7999 26.0283 60.9999 25.4283 60.9999H19.7883ZM20.2683 41.3199V35.1999H33.7683C33.7683 37.7199 33.7083 39.3799 33.5883 40.1799C33.5083 40.9399 33.1883 41.3199 32.6283 41.3199H20.2683Z" fill="#39393A"/>
<path d="M37.4836 60.9999V21.9399C37.4836 20.9399 37.5836 20.2399 37.7836 19.8399C37.9836 19.4399 38.5636 19.1999 39.5236 19.1199C40.4836 19.0399 42.0836 18.9999 44.3236 18.9999V59.7999C44.3236 60.1999 44.2236 60.4799 44.0236 60.6399C43.8236 60.7999 43.2436 60.8999 42.2836 60.9399C41.3636 60.9799 39.7636 60.9999 37.4836 60.9999Z" fill="#39393A"/>
<path d="M57.3333 61.5999C55.9733 61.5999 54.7533 61.4199 53.6733 61.0599C52.5933 60.7399 51.6533 60.1599 50.8533 59.3199C50.0533 58.4799 49.3933 57.2999 48.8733 55.7799C48.3533 54.2599 47.9533 52.3199 47.6733 49.9599C47.4333 47.5999 47.3133 44.7399 47.3133 41.3799C47.3133 37.4599 47.5533 34.1399 48.0333 31.4199C48.5133 28.6999 49.1533 26.4999 49.9533 24.8199C50.7933 23.0999 51.7333 21.7799 52.7733 20.8599C53.8133 19.8999 54.8933 19.2599 56.0133 18.9399C57.1333 18.5799 58.2333 18.3999 59.3133 18.3999C61.0333 18.3999 62.2933 18.5799 63.0933 18.9399C63.8933 19.2599 64.4133 19.6999 64.6533 20.2599C64.8933 20.7799 65.0133 21.3399 65.0133 21.9399C65.0133 22.7399 64.9133 23.4999 64.7133 24.2199C64.5133 24.8999 64.2933 25.4999 64.0533 26.0199C63.8133 25.8199 63.5333 25.6599 63.2133 25.5399C62.8933 25.3799 62.5333 25.2599 62.1333 25.1799C61.7733 25.0599 61.3733 24.9999 60.9333 24.9999C60.2533 24.9999 59.5933 25.1399 58.9533 25.4199C58.3133 25.6599 57.7133 26.1199 57.1533 26.7999C56.5933 27.4799 56.1133 28.4199 55.7133 29.6199C55.3133 30.8199 54.9933 32.3399 54.7533 34.1799C54.5133 36.0199 54.3933 38.2399 54.3933 40.8399C54.3933 43.4399 54.4733 45.5999 54.6333 47.3199C54.8333 49.0399 55.1133 50.3999 55.4733 51.3999C55.8333 52.3599 56.3133 53.0599 56.9133 53.4999C57.5133 53.8999 58.2333 54.0999 59.0733 54.0999C59.9933 54.0999 60.8533 54.0199 61.6533 53.8599C62.4933 53.6999 63.1933 53.4799 63.7533 53.1999C63.9933 53.7199 64.1933 54.3399 64.3533 55.0599C64.5533 55.7399 64.6533 56.4399 64.6533 57.1599C64.6533 58.0799 64.3533 58.8799 63.7533 59.5599C63.1933 60.2399 62.3533 60.7399 61.2333 61.0599C60.1533 61.4199 58.8533 61.5999 57.3333 61.5999Z" fill="#39393A"/>
<path d="M67.425 60.9999V21.9399C67.425 20.9399 67.525 20.2399 67.725 19.8399C67.925 19.4399 68.505 19.1999 69.465 19.1199C70.425 19.0399 72.025 18.9999 74.265 18.9999V59.7999C74.265 60.1999 74.165 60.4799 73.965 60.6399C73.765 60.7999 73.185 60.8999 72.225 60.9399C71.305 60.9799 69.705 60.9999 67.425 60.9999Z" fill="#39393A"/>
<path d="M77.8547 60.9999V20.1999C77.8547 20.1999 77.9147 19.9999 78.0347 19.5999C78.1547 19.1999 78.4947 18.9999 79.0547 18.9999H93.4547C93.4547 20.7999 93.4347 22.1199 93.3947 22.9599C93.3547 23.7999 93.2547 24.3599 93.0947 24.6399C92.9347 24.8799 92.6547 24.9999 92.2547 24.9999H84.5747V54.9999H93.0347C93.0347 56.8799 93.0147 58.2399 92.9747 59.0799C92.9347 59.9199 92.8347 60.4599 92.6747 60.6999C92.5147 60.8999 92.2347 60.9999 91.8347 60.9999H77.8547ZM78.3347 41.3199V35.1999H91.8347C91.8347 37.7199 91.7747 39.3799 91.6547 40.1799C91.5747 40.9399 91.2547 41.3199 90.6947 41.3199H78.3347Z" fill="#39393A"/>
<path d="M111.623 60.9999L105.263 44.9199C104.903 43.9599 104.523 42.8599 104.123 41.6199C103.763 40.3799 103.403 39.0799 103.043 37.7199C102.723 36.3599 102.423 35.0399 102.143 33.7599C101.863 32.4799 101.603 31.3199 101.363 30.2799C101.163 29.2399 101.003 28.4199 100.883 27.8199C100.763 27.1799 100.703 26.8599 100.703 26.8599L96.743 22.8999L97.043 18.9999H102.383L108.623 34.7799C109.023 35.8199 109.423 36.9999 109.823 38.3199C110.223 39.5999 110.583 40.9199 110.903 42.2799C111.263 43.5999 111.583 44.8799 111.863 46.1199C112.143 47.3599 112.383 48.4799 112.583 49.4799C112.783 50.4799 112.943 51.2799 113.063 51.8799C113.183 52.4399 113.243 52.7199 113.243 52.7199L117.323 57.0999L116.843 60.9999H111.623ZM95.843 60.9999V20.1999C95.843 19.3999 96.243 18.9999 97.043 18.9999L102.563 20.1999L101.543 30.3399C101.663 31.1799 101.763 32.0399 101.843 32.9199C101.923 33.7999 102.003 34.6999 102.083 35.6199C102.163 36.4999 102.223 37.3799 102.263 38.2599C102.343 39.0999 102.403 39.9399 102.443 40.7799C102.483 41.6199 102.503 42.4399 102.503 43.2399C102.543 43.9999 102.563 44.7199 102.563 45.3999V59.7999C102.563 60.1999 102.463 60.4799 102.263 60.6399C102.063 60.7999 101.503 60.8999 100.583 60.9399C99.663 60.9799 98.083 60.9999 95.843 60.9999ZM116.843 60.9999L111.323 59.7999L112.223 48.2799C112.103 47.3599 112.003 46.4799 111.923 45.6399C111.843 44.7599 111.763 43.9199 111.683 43.1199C111.643 42.3199 111.583 41.5399 111.503 40.7799C111.463 40.0199 111.423 39.2799 111.383 38.5599C111.383 37.7999 111.363 37.0599 111.323 36.3399C111.323 35.6199 111.323 34.8999 111.323 34.1799V20.1999C111.323 19.7999 111.423 19.5199 111.623 19.3599C111.823 19.1999 112.383 19.0999 113.303 19.0599C114.263 19.0199 115.843 18.9999 118.043 18.9999V59.7999C118.043 60.5999 117.643 60.9999 116.843 60.9999Z" fill="#39393A"/>
<path d="M127.744 60.9999V19.5999C127.744 19.5999 127.784 19.5999 127.864 19.5999C127.984 19.5999 128.344 19.5999 128.944 19.5999H133.264C133.864 19.5999 134.204 19.5999 134.284 19.5999C134.404 19.5999 134.464 19.5999 134.464 19.5999V59.7999C134.464 60.1999 134.364 60.4799 134.164 60.6399C133.964 60.7999 133.384 60.8999 132.424 60.9399C131.504 60.9799 129.944 60.9999 127.744 60.9999ZM120.424 25.2999V20.1999C120.424 19.3999 120.824 18.9999 121.624 18.9999H142.024V24.0999C142.024 24.5799 141.924 24.8999 141.724 25.0599C141.564 25.2199 141.264 25.2999 140.824 25.2999H120.424Z" fill="#39393A"/>
<path d="M144.417 60.9999V20.1999C144.417 20.1999 144.477 19.9999 144.597 19.5999C144.717 19.1999 145.057 18.9999 145.617 18.9999H160.017C160.017 20.7999 159.997 22.1199 159.957 22.9599C159.917 23.7999 159.817 24.3599 159.657 24.6399C159.497 24.8799 159.217 24.9999 158.817 24.9999H151.137V54.9999H159.597C159.597 56.8799 159.577 58.2399 159.537 59.0799C159.497 59.9199 159.397 60.4599 159.237 60.6999C159.077 60.8999 158.797 60.9999 158.397 60.9999H144.417ZM144.897 41.3199V35.1999H158.397C158.397 37.7199 158.337 39.3799 158.217 40.1799C158.137 40.9399 157.817 41.3199 157.257 41.3199H144.897Z" fill="#39393A"/>
<path d="M180.084 61.3599C178.964 61.3599 178.104 61.0199 177.504 60.3399C176.904 59.6599 176.504 58.8199 176.304 57.8199C175.944 56.2199 175.524 54.2199 175.044 51.8199C174.604 49.3799 174.124 46.7799 173.604 44.0199C173.084 41.2199 172.564 38.4599 172.044 35.7399C171.564 32.9799 171.124 30.4799 170.724 28.2399C170.324 25.9599 170.004 24.1399 169.764 22.7799C169.524 21.4199 169.404 20.7399 169.404 20.7399C169.284 20.0599 169.284 19.5999 169.404 19.3599C169.524 19.1199 170.024 18.9999 170.904 18.9999H176.544L179.544 38.5599C179.864 40.5199 180.144 42.5599 180.384 44.6799C180.664 46.7999 180.924 48.7999 181.164 50.6799C181.404 52.5599 181.604 54.1599 181.764 55.4799C181.884 54.1599 182.044 52.5599 182.244 50.6799C182.444 48.7999 182.664 46.7999 182.904 44.6799C183.184 42.5599 183.464 40.5199 183.744 38.5599L186.324 20.7999C186.404 20.1599 186.544 19.6999 186.744 19.4199C186.944 19.1399 187.344 18.9999 187.944 18.9999H193.884L185.964 60.9999C184.964 61.1199 184.044 61.1999 183.204 61.2399C182.404 61.3199 181.364 61.3599 180.084 61.3599Z" fill="#39393A"/>
<path d="M195.98 60.9999V21.9399C195.98 20.9399 196.08 20.2399 196.28 19.8399C196.48 19.4399 197.06 19.1999 198.02 19.1199C198.98 19.0399 200.58 18.9999 202.82 18.9999V59.7999C202.82 60.1999 202.72 60.4799 202.52 60.6399C202.32 60.7999 201.74 60.8999 200.78 60.9399C199.86 60.9799 198.26 60.9999 195.98 60.9999Z" fill="#39393A"/>
<path d="M213.429 61.5999C210.749 61.5999 208.769 61.1999 207.489 60.3999C206.209 59.5599 205.569 58.6199 205.569 57.5799C205.569 56.8999 205.689 56.1199 205.929 55.2399C206.169 54.3199 206.549 53.4799 207.069 52.7199C207.709 53.2799 208.529 53.7599 209.529 54.1599C210.529 54.5199 211.569 54.6999 212.649 54.6999C214.289 54.6999 215.429 54.2799 216.069 53.4399C216.709 52.5999 217.029 51.4799 217.029 50.0799C217.029 49.0399 216.829 48.0599 216.429 47.1399C216.069 46.2199 215.369 45.0799 214.329 43.7199L208.869 36.3999C207.509 34.5599 206.609 32.9599 206.169 31.5999C205.729 30.2399 205.509 28.8999 205.509 27.5799C205.509 24.8599 206.409 22.6599 208.209 20.9799C210.009 19.2599 212.669 18.3999 216.189 18.3999C219.229 18.3999 221.349 18.6999 222.549 19.2999C223.749 19.8999 224.349 20.7199 224.349 21.7599C224.349 22.3199 224.229 22.9399 223.989 23.6199C223.749 24.2599 223.349 24.8999 222.789 25.5399C222.469 25.2999 221.809 25.0399 220.809 24.7599C219.809 24.4799 218.729 24.3399 217.569 24.3399C216.089 24.3399 214.929 24.5999 214.089 25.1199C213.249 25.5999 212.829 26.3599 212.829 27.3999C212.829 28.3199 212.989 29.1799 213.309 29.9799C213.669 30.7399 214.229 31.6599 214.989 32.7399L220.749 40.1199C222.189 41.9599 223.149 43.6199 223.629 45.0999C224.109 46.5799 224.349 48.1799 224.349 49.8999C224.349 51.8999 224.029 53.7999 223.389 55.5999C222.789 57.3599 221.709 58.7999 220.149 59.9199C218.589 61.0399 216.349 61.5999 213.429 61.5999Z" fill="#39393A"/>
<path d="M237.774 61.5999C235.414 61.5999 233.514 61.2799 232.074 60.6399C230.674 59.9999 229.594 59.1399 228.834 58.0599C228.114 56.9399 227.634 55.6599 227.394 54.2199C227.154 52.7399 227.034 51.1599 227.034 49.4799V20.2599C227.034 19.8199 227.134 19.5199 227.334 19.3599C227.534 19.1999 228.114 19.0999 229.074 19.0599C230.034 19.0199 231.674 18.9999 233.994 18.9999V49.7199C233.994 50.6799 234.034 51.5199 234.114 52.2399C234.234 52.9599 234.434 53.5599 234.714 54.0399C234.994 54.5199 235.374 54.8799 235.854 55.1199C236.374 55.3199 237.014 55.4199 237.774 55.4199C238.454 55.4199 239.094 55.3599 239.694 55.2399C240.334 55.0799 240.854 54.8999 241.254 54.6999V20.2599C241.254 19.8199 241.354 19.5199 241.554 19.3599C241.754 19.1999 242.314 19.0999 243.234 19.0599C244.194 19.0199 245.814 18.9999 248.094 18.9999V59.3199C247.374 59.7999 246.114 60.2999 244.314 60.8199C242.514 61.3399 240.334 61.5999 237.774 61.5999Z" fill="#39393A"/>
<path d="M254.282 61.1199C253.842 61.1199 253.222 61.0999 252.422 61.0599C251.622 61.0199 250.822 60.9599 250.022 60.8799L260.042 20.1399C260.202 19.2999 261.102 18.8799 262.742 18.8799C263.302 18.8799 263.862 18.8999 264.422 18.9399C265.022 18.9799 265.522 19.0399 265.922 19.1199L275.942 59.9199C276.022 60.3199 275.882 60.6199 275.522 60.8199C275.162 61.0199 274.302 61.1199 272.942 61.1199C272.502 61.1199 271.962 61.0999 271.322 61.0599C270.682 61.0599 269.922 61.0399 269.042 60.9999L264.662 39.8199C264.462 38.7399 264.262 37.5799 264.062 36.3399C263.862 35.0599 263.682 33.7399 263.522 32.3799C263.362 31.0199 263.222 29.7199 263.102 28.4799C262.982 29.7199 262.822 31.0199 262.622 32.3799C262.462 33.7399 262.282 35.0599 262.082 36.3399C261.922 37.5799 261.722 38.7399 261.482 39.8199L257.342 59.8599C257.262 60.2599 257.062 60.5799 256.742 60.8199C256.462 61.0199 255.642 61.1199 254.282 61.1199ZM256.862 51.4599V45.3999H270.422V51.4599H256.862Z" fill="#39393A"/>
<path d="M277.894 60.9999V20.6799C277.894 20.1199 277.994 19.7199 278.194 19.4799C278.394 19.2399 278.954 19.0999 279.874 19.0599C280.834 19.0199 282.414 18.9999 284.614 18.9999V54.6999H293.074V59.7999C293.074 60.2799 292.954 60.5999 292.714 60.7599C292.514 60.9199 292.234 60.9999 291.874 60.9999H277.894Z" fill="#39393A"/>
</g>
<defs>
<filter id="filter0_d_341_286" x="1089.2" y="502.4" width="16" height="25.6002" filterUnits="userSpaceOnUse" color-interpolation-filters="sRGB">
<feFlood flood-opacity="0" result="BackgroundImageFix"/>
<feColorMatrix in="SourceAlpha" type="matrix" values="0 0 0 0 0 0 0 0 0 0 0 0 0 0 0 0 0 0 127 0" result="hardAlpha"/>
<feOffset dy="3.2"/>
<feGaussianBlur stdDeviation="1.6"/>
<feComposite in2="hardAlpha" operator="out"/>
<feColorMatrix type="matrix" values="0 0 0 0 0 0 0 0 0 0 0 0 0 0 0 0 0 0 0.25 0"/>
<feBlend mode="normal" in2="BackgroundImageFix" result="effect1_dropShadow_341_286"/>
<feBlend mode="normal" in="SourceGraphic" in2="effect1_dropShadow_341_286" result="shape"/>
</filter>
<filter id="filter1_d_341_286" x="1078.8" y="476.4" width="36.8" height="43.6002" filterUnits="userSpaceOnUse" color-interpolation-filters="sRGB">
<feFlood flood-opacity="0" result="BackgroundImageFix"/>
<feColorMatrix in="SourceAlpha" type="matrix" values="0 0 0 0 0 0 0 0 0 0 0 0 0 0 0 0 0 0 127 0" result="hardAlpha"/>
<feOffset dy="3.2"/>
<feGaussianBlur stdDeviation="1.6"/>
<feComposite in2="hardAlpha" operator="out"/>
<feColorMatrix type="matrix" values="0 0 0 0 0 0 0 0 0 0 0 0 0 0 0 0 0 0 0.25 0"/>
<feBlend mode="normal" in2="BackgroundImageFix" result="effect1_dropShadow_341_286"/>
<feBlend mode="normal" in="SourceGraphic" in2="effect1_dropShadow_341_286" result="shape"/>
</filter>
<clipPath id="clip0_341_286">
<rect width="1143" height="573" fill="white"/>
</clipPath>
</defs>
</svg>
